# AST/ASF file generated using VICON BodyLanguage
# -----------------------------------------------
:version 1.10
:name VICON
:units
  mass 1.0
  length 0.45
  angle deg
:documentation
   .ast/.asf automatically generated from VICON data using
   VICON BodyBuilder and BodyLanguage model FoxedUp or BRILLIANT.MOD
:root
   order TX TY TZ RX RY RZ
   axis XYZ
   position 0 0 0  
   orientation 0 -0 0 
:bonedata
  begin
     id 1 
     name lhipjoint
     direction 0.432694 -0.693742 0.575759 
     length 2.19277 
     axis 0 -0 0  XYZ
  end
  begin
     id 2 
     name lfemur
     direction 0.34202 -0.939693 0  
     length 6.69022  
     axis 0 -0 20  XYZ
    dof rx ry rz
    limits (-160.0 20.0)
           (-70.0 70.0)
           (-60.0 70.0)
  end
  begin
     id 3 
     name ltibia
     direction 0.34202 -0.939693 0   
     length 6.50337   
     axis 0 -0 20   XYZ
    dof rx
    limits (-10.0 170.0)
  end
  begin
     id 4 
     name lfoot
     direction 0.158999 -0.435969 0.885805   
     length 2.70564   
     axis -90 -1.13533e-015 20   XYZ
    dof rx rz
    limits (-45.0 90.0)
           (-70.0 20.0)
  end
  begin
     id 5 
     name ltoes
     direction -0.00592919 0.00964381 0.999936   
     length 1.29929   
     axis -90 -1.13533e-015 20   XYZ
    dof rx
    limits (-90.0 20.0)
  end
  begin
     id 6 
     name rhipjoint
     direction -0.414359 -0.700339 0.581234   
     length 2.17212  
     axis 0 -0 0  XYZ 
  end
  begin
     id 7 
     name rfemur
     direction -0.34202 -0.939693 0   
     length 7.17659   
     axis 0 -0 -20   XYZ
    dof rx ry rz
    limits (-160.0 20.0)
           (-70.0 70.0)
           (-70.0 60.0)
  end
  begin
     id 8 
     name rtibia
     direction -0.34202 -0.939693 0   
     length 6.36669   
     axis 0 -0 -20   XYZ
    dof rx
    limits (-10.0 170.0)
 end
 begin
     id 9 
     name rfoot
     direction -0.137064 -0.37658 0.916188   
     length 2.22351  
     axis -90 1.13533e-015 -20   XYZ
    dof rx rz
    limits (-45.0 90.0)
           (-20.0 70.0)
  end
  begin
     id 10 
     name rtoes
     direction -0.000784077 -0.00289101 0.999996   
     length 1.09522   
     axis -90 1.13533e-015 -20   XYZ
    dof rx
    limits (-90.0 20.0)
  end
  begin
     id 11 
     name lowerback
     direction -0.0176242 0.984912 -0.172157   
     length 1.65301   
     axis 0 -0 0   XYZ
    dof rx ry rz
    limits (-20.0 45.0)
           (-30.0 30.0)
           (-30.0 30.0)
  end
  begin
     id 12 
     name upperback
     direction -0.00218128 0.998776 -0.0494072   
     length 1.67776   
     axis 0 -0 0   XYZ
    dof rx ry rz
    limits (-20.0 45.0)
           (-30.0 30.0)
           (-30.0 30.0)
  end
  begin
     id 13 
     name thorax
     direction 0.00544186 0.999658 0.0255711   
     length 1.72293   
     axis 0 -0 0   XYZ
    dof rx ry rz
    limits (-20.0 45.0)
           (-30.0 30.0)
           (-30.0 30.0)
  end
  begin
     id 14 
     name lowerneck
     direction -0.105325 0.983841 0.144785   
     length 2.14226   
     axis 0 -0 0   XYZ
    dof rx ry rz
    limits (-20.0 45.0)
           (-30.0 30.0)
           (-30.0 30.0)
  end
  begin
     id 15 
     name upperneck
     direction 0.0547957 0.988053 -0.144041   
     length 2.17508   
     axis 0 -0 0   XYZ
    dof rx ry rz
    limits (-20.0 45.0)
           (-30.0 30.0)
           (-30.0 30.0)
  end
  begin
     id 16
     name head
     direction 0.0247488 0.997534 -0.0656813  
     length 2.20048  
     axis 0 -0 0   XYZ
    dof rx ry rz
    limits (-20.0 45.0)
           (-30.0 30.0)
           (-30.0 30.0)
  end
  begin
     id 17 
     name lclavicle
     direction 0.820559 0.567247 -0.0701026  
     length 4.09615  
     axis 0 -0 0   XYZ
    dof ry rz
    limits (-20.0 10.0)
           (0.0 20.0)
  end
  begin
     id 18 
     name lhumerus
     direction 0.999977 -0.0067566 -9.96392e-005   
     length 4.59333   
     axis -180 -30 -90   XYZ
    dof rx ry rz
    limits (-60.0 90.0)
           (-90.0 90.0)
           (-90.0 90.0)
  end
  begin
     id 19
     name lradius
     direction 1 -4.48982e-011 -2.53425e-027   
     length 2.81151   
     axis -180 -30 -90   XYZ
    dof rx
    limits (-10.0 170.0)
  end
  begin
     id 20
     name lwrist
     direction 1 -4.48939e-011 -7.39254e-028   
     length 1.40576   
     axis 2.56395e-016 90 90   XYZ
    dof ry
    limits (-180.0 0.0)
 end
  begin
     id 21 
     name lhand
     direction 1 -4.48939e-011 -1.47851e-027   
     length 0.895651   
     axis 9.43423e-016 90 90   XYZ
    dof rx rz
    limits (-90.0 90.0)
           (-45.0 45.0)
  end
  begin
     id 22 
     name lfingers
     direction 1 -4.48978e-011 -2.95702e-027   
     length 0.722097   
     axis 1.88685e-015 90 90   XYZ
    dof rx
    limits (0.0 90.0)
  end
  begin
     id 23
     name lthumb
     direction 0.707107 -6.34931e-011 0.707107   
     length 1.03679   
     axis -90 45 -9.86935e-015   XYZ
    dof rx rz
    limits (-45.0 45.0)
           (-45.0 45.0)
  end
  begin
     id 24 
     name rclavicle
     direction -0.831414 0.553102 -0.0531864   
     length 4.24872  
     axis 0 -0 0   XYZ 
    dof ry rz
    limits (-10.0 20.0)
           (-20.0 0.0)
  end
  begin
     id 25 
     name rhumerus
     direction -0.999916 -0.000939607 0.0129331  
     length 4.74834   
     axis -180 30 90   XYZ
    dof rx ry rz
    limits (-90.0 60.0)
           (-90.0 90.0)
           (-90.0 90.0)
  end
  begin
     id 26 
     name rradius
     direction -1 -4.48956e-011 -1.31752e-027   
     length 2.79907   
     axis -180 30 90   XYZ
    dof rx
    limits (-10.0 170.0)
  end
  begin
     id 27 
     name rwrist
     direction -1 -4.4897e-011 -7.39254e-028   
     length 1.39954   
     axis 2.56395e-016 -90 -90   XYZ
    dof ry
    limits (-180.0 0.0)
  end
  begin
     id 28
     name rhand
     direction -0.999997 -0.00250697 0.000800838   
     length 0.953304   
     axis 9.43423e-016 -90 -90   XYZ
    dof rx rz
    limits (-90.0 90.0)
           (-45.0 45.0)
  end
  begin
     id 29
     name rfingers
     direction -1 -4.48954e-011 -2.95702e-027   
     length 0.763342   
     axis 1.88685e-015 -90 -90   XYZ
    dof rx
    limits (0.0 90.0)
  end
  begin
     id 30
     name rthumb
     direction -0.709701 -0.00217037 0.7045   
     length 1.10115   
     axis -90 -45 9.86935e-015   XYZ
    dof rx rz
    limits (-45.0 45.0)
           (-45.0 45.0)
  end
:hierarchy
  begin
    root lhipjoint rhipjoint lowerback
    lhipjoint lfemur
    lfemur ltibia
    ltibia lfoot
    lfoot ltoes
    rhipjoint rfemur
    rfemur rtibia
    rtibia rfoot
    rfoot rtoes
    lowerback upperback
    upperback thorax
    thorax lowerneck lclavicle rclavicle
    lowerneck upperneck
    upperneck head
    lclavicle lhumerus
    lhumerus lradius
    lradius lwrist
    lwrist lhand lthumb
    lhand lfingers
    rclavicle rhumerus
    rhumerus rradius
    rradius rwrist
    rwrist rhand rthumb
    rhand rfingers
  end

#!OML:ASF G:\ViconDB\ViconDB\414\test\team2\shane.ASF
:FULLY-SPECIFIED
:DEGREES
65
root 3.09217 15.2703 -22.0638 89.4468 68.3362 -50.4592
lowerback 7.23727 1.27225 -4.55389
upperback 0.914023 1.17574 -3.96494
thorax -3.12408 0.61016 -1.66416
lowerneck -22.3994 -8.50595 -13.3557
upperneck 23.165 -8.17851 5.08505
head 12.1638 -4.1234 2.68769
rclavicle -2.38542e-014 1.66979e-014
rhumerus 71.7986 -12.696 -47.4806
rradius 26.9535
rwrist 33.3073
rhand -54.805 -58.3103
rfingers 7.12502
rthumb -27.1937 -86.3705
lclavicle -2.38542e-014 1.66979e-014
lhumerus 64.3751 9.84412 20.212
lradius 30.821
lwrist -7.36014
lhand -70.5074 227.327
lfingers 7.12502
lthumb -42.0844 -157.234
rfemur 25.7916 -7.45619 -3.36203
rtibia 40.5259
rfoot 0.684094 -8.87005
rtoes -8.52895
lfemur -28.6164 1.67365 44.4009
ltibia 67.2043
lfoot -11.7571 -7.97953
ltoes -2.95566
66
root 3.13977 15.2679 -21.8248 94.9041 70.4395 -45.8449
lowerback 6.5068 1.10711 -4.27384
upperback 0.503006 1.03445 -3.3956
thorax -3.1454 0.545794 -1.20584
lowerneck -21.8485 -8.81313 -13.5524
upperneck 23.2642 -8.65243 5.31115
head 12.1715 -4.3281 2.72997
rclavicle -1.11319e-013 -1.35174e-014
rhumerus 69.7316 -13.1386 -48.4736
rradius 28.417
rwrist 35.3866
rhand -54.6493 -62.5257
rfingers 7.12502
rthumb -27.0447 90.6092
lclavicle -1.11319e-013 -1.35174e-014
lhumerus 64.4203 8.80254 19.4927
lradius 31.8823
lwrist -6.87561
lhand -70.4507 224.868
lfingers 7.12502
lthumb -42.0313 -159.712
rfemur 25.6937 -8.30032 -3.66923
rtibia 41.5968
rfoot 0.148567 -7.98745
rtoes -8.92658
lfemur -27.1133 0.511371 43.9333
ltibia 66.8227
lfoot -10.4921 -9.15595
ltoes -2.95566
67
root 3.13977 15.2679 -21.8248 94.9041 70.4395 -45.8449
lowerback 6.5068 1.10711 -4.27384
upperback 0.503006 1.03445 -3.3956
thorax -3.1454 0.545794 -1.20584
lowerneck -21.8485 -8.81313 -13.5524
upperneck 23.2642 -8.65243 5.31115
head 12.1715 -4.3281 2.72997
rclavicle -1.11319e-013 -1.35174e-014
rhumerus 69.7316 -13.1386 -48.4736
rradius 28.417
rwrist 35.3866
rhand -54.6493 -62.5257
rfingers 7.12502
rthumb -27.0447 90.6092
lclavicle -1.11319e-013 -1.35174e-014
lhumerus 64.4203 8.80254 19.4927
lradius 31.8823
lwrist -6.87561
lhand -70.4507 224.868
lfingers 7.12502
lthumb -42.0313 -159.712
rfemur 25.6937 -8.30032 -3.66923
rtibia 41.5968
rfoot 0.148567 -7.98745
rtoes -8.92658
lfemur -27.1133 0.511371 43.9333
ltibia 66.8227
lfoot -10.4921 -9.15595
ltoes -2.95566
68
root 3.22626 15.2356 -21.359 105.571 74.5579 -36.8905
lowerback 4.7558 0.809773 -3.29466
upperback -0.312527 0.818618 -2.19059
thorax -3.00509 0.440445 -0.468286
lowerneck -20.3451 -9.27918 -12.9906
upperneck 23.2136 -9.51984 4.92537
head 11.9032 -4.72681 2.37927
rclavicle -1.6022e-013 -1.86858e-014
rhumerus 64.1968 -13.0798 -46.6307
rradius 34.1733
rwrist 33.9786
rhand -54.7928 -58.695
rfingers 7.12502
rthumb -27.182 -86.757
lclavicle -1.6022e-013 -1.86858e-014
lhumerus 64.3321 7.15791 18.0978
lradius 33.0981
lwrist -6.58353
lhand -69.9091 221.704
lfingers 7.12502
lthumb -41.5235 -163.043
rfemur 25.4562 -9.17788 -4.17635
rtibia 42.5755
rfoot -0.405727 -8.32097
rtoes -10.4245
lfemur -22.8079 -1.69855 43.2734
ltibia 66.0874
lfoot -7.60755 -10.9914
ltoes -2.95566
69
root 3.22626 15.2356 -21.359 105.571 74.5579 -36.8905
lowerback 4.7558 0.809773 -3.29466
upperback -0.312527 0.818618 -2.19059
thorax -3.00509 0.440445 -0.468286
lowerneck -20.3451 -9.27918 -12.9906
upperneck 23.2136 -9.51984 4.92537
head 11.9032 -4.72681 2.37927
rclavicle -1.6022e-013 -1.86858e-014
rhumerus 64.1968 -13.0798 -46.6307
rradius 34.1733
rwrist 33.9786
rhand -54.7928 -58.695
rfingers 7.12502
rthumb -27.182 -86.757
lclavicle -1.6022e-013 -1.86858e-014
lhumerus 64.3321 7.15791 18.0978
lradius 33.0981
lwrist -6.58353
lhand -69.9091 221.704
lfingers 7.12502
lthumb -41.5235 -163.043
rfemur 25.4562 -9.17788 -4.17635
rtibia 42.5755
rfoot -0.405727 -8.32097
rtoes -10.4245
lfemur -22.8079 -1.69855 43.2734
ltibia 66.0874
lfoot -7.60755 -10.9914
ltoes -2.95566
70
root 3.30952 15.2816 -20.9352 116.001 78.1002 -27.9487
lowerback 3.29821 0.66647 -2.56241
upperback -1.16069 0.733318 -1.3598
thorax -3.05854 0.401155 -0.00543399
lowerneck -19.5755 -9.3461 -12.0322
upperneck 24.3579 -9.91812 4.71185
head 12.1675 -4.85746 2.10323
rclavicle -1.33981e-013 -6.10269e-014
rhumerus 59.6466 -11.9454 -42.3309
rradius 37.0183
rwrist 29.9309
rhand -55.5925 -59.8442
rfingers 7.12502
rthumb -27.9467 -87.7843
lclavicle -1.33981e-013 -6.10269e-014
lhumerus 64.1977 5.86503 17.0739
lradius 34.246
lwrist -6.92669
lhand -69.6502 219.987
lfingers 7.12502
lthumb -41.2805 -164.84
rfemur 24.7843 -8.81741 -5.35723
rtibia 43.3303
rfoot -0.933663 -9.19934
rtoes -9.27091
lfemur -17.7983 -3.51962 42.3231
ltibia 66.137
lfoot -4.51066 -12.5099
ltoes -5.13051
71
root 3.35025 15.3076 -20.7267 123.773 79.8946 -20.6019
lowerback 2.894 0.464355 -1.83231
upperback -1.45223 0.520056 -0.834428
thorax -3.12433 0.289008 0.14033
lowerneck -19.5987 -9.24478 -12.5443
upperneck 24.9717 -9.8931 5.6414
head 12.5011 -4.7847 2.53972
rclavicle 1.81391e-013 6.09275e-014
rhumerus 58.1283 -11.0913 -40.447
rradius 37.9388
rwrist 28.1836
rhand -55.9409 -62.2793
rfingers 7.12502
rthumb -28.2797 90.1646
lclavicle 1.81391e-013 6.09275e-014
lhumerus 63.6608 5.58037 16.1296
lradius 34.9265
lwrist -6.72841
lhand -69.6128 219.417
lfingers 7.12502
lthumb -41.2454 -165.421
rfemur 24.9372 -8.48647 -5.71467
rtibia 42.7971
rfoot -0.857065 -9.74742
rtoes -9.04726
lfemur -15.0797 -5.1792 41.943
ltibia 66.0551
lfoot -2.55164 -12.7982
ltoes -5.13051
72
root 3.38697 15.3393 -20.5162 133.619 81.0839 -11.2958
lowerback 2.28608 0.174031 -1.53651
upperback -1.67434 0.17199 -0.268942
thorax -3.00523 0.116329 0.576496
lowerneck -19.0834 -9.14211 -11.2716
upperneck 24.3274 -9.88345 4.54409
head 11.9954 -4.80519 1.94634
rclavicle -8.75149e-014 -1.20762e-014
rhumerus 56.9601 -10.2566 -38.7912
rradius 38.7573
rwrist 26.5521
rhand -56.0537 -63.354
rfingers 7.12502
rthumb -28.3875 91.2214
lclavicle -8.75149e-014 -1.20762e-014
lhumerus 62.9813 5.47856 15.3805
lradius 35.5685
lwrist -6.70815
lhand -69.4483 219.941
lfingers 7.12502
lthumb -41.091 -164.947
rfemur 25.149 -8.08017 -6.34264
rtibia 41.7311
rfoot -0.440922 -10.5174
rtoes -8.59206
lfemur -12.7042 -6.32422 41.1989
ltibia 66.0265
lfoot -0.416556 -13.1377
ltoes -5.33351
73
root 3.4117 15.3151 -20.2818 148.308 81.9511 2.81143
lowerback 1.76237 -0.154269 -0.958433
upperback -1.93653 -0.226428 0.31972
thorax -2.97097 -0.0876782 0.875274
lowerneck -18.837 -8.98478 -11.3109
upperneck 23.904 -9.84178 5.04414
head 11.8093 -4.74148 2.15464
rclavicle 1.51325e-014 3.37934e-015
rhumerus 56.0108 -9.7777 -37.9718
rradius 39.1116
rwrist 26.0182
rhand -55.8111 -64.3547
rfingers 7.12502
rthumb -28.1556 92.2605
lclavicle 1.51325e-014 3.37934e-015
lhumerus 62.7295 5.45766 15.0184
lradius 35.8503
lwrist -6.90676
lhand -69.4431 218.922
lfingers 7.12502
lthumb -41.0861 -165.967
rfemur 25.4071 -7.90761 -6.45869
rtibia 40.6586
rfoot -0.265516 -11.0999
rtoes -8.23777
lfemur -10.4105 -7.41143 40.6224
ltibia 65.8555
lfoot 1.78415 -13.6952
ltoes -6.94126
74
root 3.45566 15.3932 -20.0833 166.153 82.2085 20.0929
lowerback 1.23377 -0.458518 -0.25044
upperback -2.16411 -0.597268 0.93948
thorax -2.89977 -0.282202 1.12737
lowerneck -18.8092 -8.96316 -10.8854
upperneck 23.6887 -9.90555 4.8924
head 11.69 -4.75361 2.02171
rclavicle 8.41356e-014 2.91716e-014
rhumerus 55.4521 -9.45979 -37.6411
rradius 39.1329
rwrist 25.887
rhand -55.7514 -65.2582
rfingers 7.12502
rthumb -28.0986 93.1734
lclavicle 8.41356e-014 2.91716e-014
lhumerus 62.5181 5.45372 14.1304
lradius 36.2276
lwrist -6.64137
lhand -69.4365 218.881
lfingers 7.12502
lthumb -41.0799 -166.01
rfemur 25.34 -7.4529 -6.4432
rtibia 39.7268
rfoot 0.117698 -11.5359
rtoes -8.21028
lfemur -8.48815 -9.10907 40.2454
ltibia 65.8876
lfoot 4.05021 -13.6989
ltoes -7.10793
